<svg xmlns="http://www.w3.org/2000/svg" width="400" height="200" fill-rule="evenodd" stroke-linejoin="round" stroke-miterlimit="1" clip-rule="evenodd" version="1"><path d="M15 58c10-1 42-22 62-13 0 15-17 24-10 46-45-6-38 40-36 53 2 2 33-20 43-19-9 11-43 38-53 40-6-17 5-52-3-80 26 12 45-8 39-34-8-2-30 13-42 7z"/><path d="M105 25c5 0 5 4 13 3-5 28-15 27-20 43 15 1 31-13 56-10-2 10-14 9-26 10 1 20-2 35-10 57 4 23 46 30 59 34-3 10-29 10-43 9-11-12-14-17-23-30-15 7-25 18-53 21 6-6 33-14 43-31-3-15-26-23-20-29 15-5 18 17 24 19 11-5 9-27 9-43-15-4-26 3-33 9 1-11 19-33 24-62zM270 38c-8 3-19-11-19-17 13-10 25 5 19 17M311 8c7 1 18 5 16 13-9 1-19 15-30 13 2-5 11-10 14-26zM319 38c-26 1-47 9-71 7-2 15 40-3 32 20-1 6-27 2-32 4-3 12 23 1 32 7 0 9 2 8 0 15-21 0-42 0-49 7 7 3 15 0 23 4 1 12 7 15 6 22-11 4-37 1-52 8 23 6 144-9 167-11-20-13-46 2-61-3 10-14 6-19 6-23 8-5 21 0 24-7-18-12-40 8-53-3 2-8 3-6 3-14 11 0 26 0 30-9-8-5-20 4-29 1-3-7-1-10-1-15 9 0 27 3 33-9l-8-1zm-12 57c3 12-2 13-3 26-14 0-24 0-33 3-1-10 1-16-10-23 5-4 36-6 46-6zM302 138c-20 0-43 5-57 7 12 10 5 8 12 39 24-6 42 2 64-10-4-18 13-15 13-29-8-5-19-7-32-7zm-4 7l16 3c-3 9-1 10-6 23-23-1-27 7-44 3 3-14-5-19 0-26 15 3 21-3 34-3z"/></svg>